<svg width="99" height="29" viewBox="0 0 99 29" fill="none" xmlns="http://www.w3.org/2000/svg">
<g clip-path="url(#clip0)">
<path fill-rule="evenodd" clip-rule="evenodd" d="M61.4177 22.6789C55.6646 26.8008 47.3259 29 40.1464 29C30.0797 29 21.017 25.3808 14.1607 19.3613C13.622 18.8879 14.1047 18.2428 14.7511 18.6114C22.1504 22.7962 31.2992 25.3137 40.7498 25.3137C47.1234 25.3137 54.1348 24.0319 60.5816 21.372C61.5556 20.9698 62.37 21.9919 61.4177 22.6789Z" fill="#4E5A85"/>
<path fill-rule="evenodd" clip-rule="evenodd" d="M63.8094 20.019C63.0768 19.1058 58.9484 19.5875 57.0953 19.8011C56.5308 19.8682 56.4446 19.3906 56.9531 19.0471C60.2412 16.7977 65.6366 17.447 66.2657 18.201C66.8949 18.9592 66.102 24.2163 63.0121 26.7254C62.5381 27.1108 62.0856 26.9056 62.2968 26.3945C62.9906 24.7106 64.5463 20.9363 63.8094 20.019Z" fill="#4E5A85"/>
<path fill-rule="evenodd" clip-rule="evenodd" d="M57.2246 3.16687V0.980246C57.2246 0.64932 57.4832 0.427307 57.7935 0.427307H67.8645C68.1877 0.427307 68.4463 0.65351 68.4463 0.980246V2.8527C68.442 3.16687 68.1705 3.57738 67.6878 4.22667L62.4692 11.4693C64.4084 11.4233 66.4554 11.7039 68.2136 12.6674C68.6101 12.8852 68.7178 13.2035 68.748 13.5177V15.851C68.748 16.1693 68.386 16.5421 68.0067 16.3494C64.9083 14.7702 60.7928 14.5985 57.3668 16.3662C57.0178 16.5505 56.6515 16.1819 56.6515 15.8635V13.6476C56.6515 13.2915 56.6558 12.6841 57.0221 12.1438L63.0682 3.71562H57.8064C57.4832 3.71562 57.2246 3.49361 57.2246 3.16687Z" fill="#4E5A85"/>
<path fill-rule="evenodd" clip-rule="evenodd" d="M20.4869 16.8102H17.4229C17.1299 16.7892 16.8972 16.5756 16.8756 16.3033V1.01791C16.8756 0.712115 17.1385 0.469155 17.466 0.469155H20.3232C20.6205 0.481713 20.8575 0.703735 20.8791 0.980204V2.97833H20.9351C21.6806 1.04723 23.0812 0.146606 24.9687 0.146606C26.8864 0.146606 28.0844 1.04723 28.9463 2.97833C29.6875 1.04723 31.3725 0.146606 33.1781 0.146606C34.4623 0.146606 35.8672 0.661845 36.7248 1.81799C37.6944 3.10399 37.4962 4.97226 37.4962 6.61013L37.4918 16.2572C37.4918 16.563 37.229 16.8102 36.9015 16.8102H33.8418C33.5358 16.7892 33.2902 16.5505 33.2902 16.2572V8.15584C33.2902 7.51075 33.3505 5.9022 33.204 5.29061C32.9756 4.26433 32.2904 3.97529 31.4027 3.97529C30.6614 3.97529 29.8857 4.45702 29.5712 5.22778C29.2566 5.99855 29.2867 7.28873 29.2867 8.15584V16.2572C29.2867 16.563 29.0239 16.8102 28.6963 16.8102H25.6367C25.3264 16.7892 25.0851 16.5505 25.0851 16.2572L25.0808 8.15584C25.0808 6.45095 25.3695 3.94178 23.1932 3.94178C20.9911 3.94178 21.0773 6.38811 21.0773 8.15584V16.2572C21.0773 16.563 20.8144 16.8102 20.4869 16.8102" fill="#4E5A85"/>
<path fill-rule="evenodd" clip-rule="evenodd" d="M77.1168 0.146606C81.6633 0.146606 84.1239 3.94178 84.1239 8.76743C84.1239 13.4297 81.4047 17.1285 77.1168 17.1285C72.6523 17.1285 70.2218 13.3334 70.2218 8.60406C70.2218 3.84543 72.6824 0.146606 77.1168 0.146606ZM77.1427 3.26736C74.8846 3.26736 74.7423 6.25826 74.7423 8.12234C74.7423 9.9906 74.7122 13.9785 77.1168 13.9785C79.4913 13.9785 79.6034 10.7614 79.6034 8.80094C79.6034 7.51075 79.5473 5.96923 79.1466 4.74606C78.8018 3.68207 78.1166 3.26736 77.1427 3.26736Z" fill="#4E5A85"/>
<path fill-rule="evenodd" clip-rule="evenodd" d="M90.0192 16.8102H86.9681C86.6622 16.7892 86.4165 16.5505 86.4165 16.2572L86.4122 0.967637C86.4381 0.686978 86.6923 0.469155 87.0026 0.469155H89.8425C90.1097 0.481713 90.3295 0.657657 90.3898 0.896426V3.23385H90.4458C91.3034 1.14357 92.5057 0.146606 94.6216 0.146606C95.9963 0.146606 97.3366 0.628334 98.1985 1.94785C99 3.17102 99 5.22778 99 6.70647V16.3285C98.9655 16.5965 98.7113 16.8102 98.4096 16.8102H95.337C95.0569 16.7892 94.8242 16.5882 94.794 16.3285V8.02599C94.794 6.3546 94.9923 3.90827 92.8763 3.90827C92.1308 3.90827 91.4456 4.39419 91.1052 5.13143C90.6742 6.06557 90.6182 6.99551 90.6182 8.02599V16.2572C90.6139 16.563 90.3467 16.8102 90.0192 16.8102" fill="#4E5A85"/>
<path fill-rule="evenodd" clip-rule="evenodd" d="M49.1962 9.50888C49.1962 10.6692 49.2263 11.6369 48.623 12.6673C48.1361 13.5051 47.3604 14.0204 46.5028 14.0204C45.3263 14.0204 44.6368 13.1491 44.6368 11.8631C44.6368 9.32456 46.9768 8.86378 49.1962 8.86378V9.50888ZM52.286 16.7683C52.0835 16.9442 51.7904 16.9568 51.562 16.8395C50.545 16.0185 50.3597 15.6373 49.8038 14.854C48.1231 16.5212 46.9294 17.0196 44.7532 17.0196C42.1718 17.0196 40.168 15.4739 40.168 12.3783C40.168 9.96128 41.5125 8.31503 43.4345 7.51076C45.0979 6.79864 47.4207 6.67297 49.1962 6.47609V6.09071C49.1962 5.38278 49.2522 4.54499 48.8213 3.93341C48.4506 3.38466 47.7353 3.15846 47.1018 3.15846C45.934 3.15846 44.8954 3.74072 44.6411 4.94713C44.5894 5.21522 44.3869 5.47913 44.1068 5.49169L41.1376 5.18171C40.8876 5.12726 40.6075 4.93037 40.6808 4.55756C41.3617 1.05561 44.6196 0 47.5327 0C49.0238 0 50.9717 0.385383 52.1481 1.48288C53.6392 2.83591 53.497 4.64134 53.497 6.60595V11.2473C53.497 12.6422 54.0917 13.2538 54.6519 14.0078C54.8458 14.2759 54.8889 14.5984 54.6389 14.7995C54.0141 15.3064 52.9023 16.2489 52.2903 16.7767L52.286 16.7683" fill="#4E5A85"/>
<path fill-rule="evenodd" clip-rule="evenodd" d="M9.02821 9.50912C9.02821 10.6695 9.05837 11.6371 8.45506 12.6676C7.96809 13.5054 7.19671 14.0206 6.33483 14.0206C5.15836 14.0206 4.47316 13.1493 4.47316 11.8633C4.47316 9.32481 6.81317 8.86403 9.02821 8.86403V9.50912ZM12.1181 16.7685C11.9155 16.9445 11.6225 16.957 11.3941 16.8398C10.3771 16.0187 10.1961 15.6375 9.63583 14.8542C7.95516 16.5214 6.76577 17.0199 4.58521 17.0199C2.00818 17.0199 0 15.4742 0 12.3785C0 9.96153 1.34884 8.31528 3.26653 7.511C4.92996 6.79888 7.25273 6.67322 9.02821 6.47634V6.09095C9.02821 5.38302 9.08423 4.54524 8.6576 3.93365C8.28268 3.3849 7.56732 3.1587 6.93814 3.1587C5.7703 3.1587 4.72742 3.74096 4.47316 4.94737C4.42145 5.21547 4.21891 5.47937 3.94311 5.49194L0.969617 5.18195C0.71967 5.1275 0.443868 4.93062 0.512819 4.55781C1.19801 1.05586 4.45161 0.000244141 7.36478 0.000244141C8.85583 0.000244141 10.8037 0.385627 11.9801 1.48313C13.4712 2.83615 13.329 4.64158 13.329 6.60619V11.2475C13.329 12.6424 13.9237 13.254 14.4839 14.008C14.6821 14.2761 14.7252 14.5987 14.4753 14.7997C13.8504 15.3066 12.7386 16.2491 12.1267 16.7769L12.1181 16.7685" fill="#4E5A85"/>
</g>
<defs>
<clipPath id="clip0">
<rect width="99" height="29" fill="white"/>
</clipPath>
</defs>
</svg>
