<svg width="109" height="36" viewBox="0 0 109 36" fill="none" xmlns="http://www.w3.org/2000/svg">
<path d="M46.3851 18.4617C46.3851 23.4587 42.3818 27.1409 37.4687 27.1409C32.5557 27.1409 28.5524 23.4587 28.5524 18.4617C28.5524 13.4295 32.5557 9.78259 37.4687 9.78259C42.3818 9.78259 46.3851 13.4295 46.3851 18.4617ZM42.4819 18.4617C42.4819 15.3391 40.1617 13.2026 37.4687 13.2026C34.7758 13.2026 32.4555 15.3391 32.4555 18.4617C32.4555 21.553 34.7758 23.7209 37.4687 23.7209C40.1617 23.7209 42.4819 21.5491 42.4819 18.4617Z" fill="#4E5A85"/>
<path d="M65.6204 18.4617C65.6204 23.4587 61.6171 27.1409 56.704 27.1409C51.791 27.1409 47.7877 23.4587 47.7877 18.4617C47.7877 13.4335 51.791 9.78259 56.704 9.78259C61.6171 9.78259 65.6204 13.4295 65.6204 18.4617ZM61.7172 18.4617C61.7172 15.3391 59.397 13.2026 56.704 13.2026C54.0111 13.2026 51.6908 15.3391 51.6908 18.4617C51.6908 21.553 54.0111 23.7209 56.704 23.7209C59.397 23.7209 61.7172 21.5491 61.7172 18.4617Z" fill="#4E5A85"/>
<path d="M84.0542 10.3069V25.8887C84.0542 32.2982 80.1831 34.9161 75.6067 34.9161C71.2988 34.9161 68.7061 32.1026 67.7283 29.8017L71.1265 28.4204C71.7316 29.833 73.2144 31.5 75.6027 31.5C78.5321 31.5 80.3474 29.7352 80.3474 26.413V25.1648H80.2112C79.3376 26.2174 77.6545 27.1369 75.5306 27.1369C71.0864 27.1369 67.015 23.3569 67.015 18.493C67.015 13.5939 71.0864 9.78259 75.5306 9.78259C77.6505 9.78259 79.3336 10.7022 80.2112 11.7235H80.3474V10.3109H84.0542V10.3069ZM80.624 18.493C80.624 15.4369 78.5361 13.2026 75.8792 13.2026C73.1863 13.2026 70.9302 15.4369 70.9302 18.493C70.9302 21.5178 73.1863 23.7209 75.8792 23.7209C78.5361 23.7209 80.624 21.5178 80.624 18.493Z" fill="#4E5A85"/>
<path d="M90.1654 1.17389V26.6087H86.3585V1.17389H90.1654Z" fill="#4E5A85"/>
<path d="M105.001 21.3183L108.03 23.2904C107.052 24.703 104.696 27.1369 100.625 27.1369C95.5754 27.1369 91.8045 23.3256 91.8045 18.4578C91.8045 13.2965 95.6074 9.77869 100.188 9.77869C104.8 9.77869 107.056 13.363 107.794 15.3L108.199 16.2861L96.3167 21.0913C97.2264 22.8326 98.641 23.7209 100.625 23.7209C102.612 23.7209 103.991 22.7661 105.001 21.3183ZM95.6756 18.1956L103.618 14.9752C103.181 13.8913 101.867 13.1361 100.32 13.1361C98.3364 13.1361 95.5754 14.8461 95.6756 18.1956Z" fill="#4E5A85"/>
<path d="M14.142 16.2039V12.5217H26.8493C26.9735 13.1635 27.0376 13.9226 27.0376 14.7443C27.0376 17.5069 26.2642 20.923 23.7716 23.3569C21.3472 25.8222 18.2495 27.1369 14.146 27.1369C6.54001 27.1369 0.144272 21.0874 0.144272 13.6604C0.144272 6.23346 6.54001 0.183899 14.146 0.183899C18.3537 0.183899 21.3512 1.79607 23.6033 3.89738L20.9424 6.49564C19.3275 5.01651 17.1395 3.86607 14.142 3.86607C8.58777 3.86607 4.24379 8.23694 4.24379 13.6604C4.24379 19.0839 8.58777 23.4548 14.142 23.4548C17.7446 23.4548 19.7963 22.0422 21.1107 20.7587C22.1767 19.7178 22.878 18.2309 23.1545 16.2L14.142 16.2039Z" fill="#4E5A85"/>
</svg>
