<svg width="106" height="29" viewBox="0 0 106 29" fill="none" xmlns="http://www.w3.org/2000/svg">
<path d="M18.9253 25.3885C17.5112 25.6329 16.0723 25.7061 14.5838 25.9013L10.0437 12.8154V26.4629C8.6297 26.6093 7.33968 26.8046 6 26.9999V1.99994H9.77102L14.9311 16.1847V1.99994H18.9253V25.3885ZM26.74 11.1552C28.2783 11.1552 30.6351 11.082 32.0491 11.082V14.9881C30.2876 14.9881 28.2286 14.9881 26.74 15.0614V20.872C29.0721 20.7256 31.4041 20.5301 33.7608 20.4568V24.2164L22.7706 25.0711V1.99994H33.7608V5.90619H26.74V11.1552ZM48.522 5.90628H44.4038V23.875C43.0641 23.875 41.7244 23.875 40.4346 23.9237V5.90628H36.3164V1.99994H48.5221L48.522 5.90628ZM54.9722 10.8867H60.4053V14.7929H54.9722V23.6553H51.0769V1.99994H62.1667V5.90619H54.9722V10.8867ZM68.6169 20.2372C70.8746 20.2859 73.1569 20.4571 75.3649 20.579V24.4364C71.8174 24.2166 68.2697 23.9971 64.6476 23.9237V1.99994H68.6169V20.2372ZM78.7141 24.705C79.9793 24.7784 81.319 24.8516 82.609 24.9979V1.99994H78.7141V24.705ZM100 1.99994L94.9638 13.8896L100 26.9999C98.5113 26.8046 97.0228 26.5361 95.5343 26.2919L92.6814 19.0655L89.7791 25.7061C88.3399 25.4618 86.9506 25.3885 85.512 25.1932L90.6225 13.743L86.0079 1.99994H90.2749L92.8798 8.56734L95.6585 1.99994H100V1.99994Z" fill="#4E5A85"/>
</svg>
