<svg width="119" height="31" viewBox="0 0 119 31" fill="none" xmlns="http://www.w3.org/2000/svg">
<g clip-path="url(#clip0)">
<path d="M38.1134 24.2874L39.595 20.7724C41.196 21.9929 43.3227 22.6276 45.4255 22.6276C46.9787 22.6276 47.9584 22.0173 47.9584 21.0898C47.9345 18.5024 38.663 20.5283 38.5914 14.0354C38.5675 10.7402 41.4349 8.20157 45.4972 8.20157C47.9106 8.20157 50.3241 8.8118 52.0446 10.2031L50.6586 13.7913C49.0815 12.7661 47.1221 12.0339 45.2582 12.0339C43.9918 12.0339 43.1554 12.6441 43.1554 13.4252C43.1793 15.9638 52.5225 14.5724 52.6181 20.7724C52.6181 24.1409 49.8223 26.5087 45.8078 26.5087C42.8687 26.5087 40.1685 25.8008 38.1134 24.2874ZM94.961 19.5031C94.2203 20.8213 92.8343 21.7244 91.2333 21.7244C88.8677 21.7244 86.956 19.7716 86.956 17.3551C86.956 14.9386 88.8677 12.9858 91.2333 12.9858C92.8343 12.9858 94.2203 13.889 94.961 15.2071L99.0472 12.8882C97.5179 10.1055 94.5787 8.20157 91.2333 8.20157C86.2869 8.20157 82.2725 12.3024 82.2725 17.3551C82.2725 22.4079 86.2869 26.5087 91.2333 26.5087C94.6026 26.5087 97.5179 24.6291 99.0472 21.822L94.961 19.5031ZM54.6731 0.610229H59.7867V26.1669H54.6731V0.610229ZM101.054 0.610229V26.1669H106.168V18.5024L112.238 26.1669H118.785L111.067 17.0622L118.211 8.56771H111.951L106.168 15.622V0.610229H101.054ZM74.9843 19.552C74.2436 20.7968 72.7142 21.7244 70.9938 21.7244C68.6281 21.7244 66.7165 19.7716 66.7165 17.3551C66.7165 14.9386 68.6281 12.9858 70.9938 12.9858C72.7142 12.9858 74.2436 13.9622 74.9843 15.2315V19.552ZM74.9843 8.56771V10.6425C74.148 9.20235 72.0691 8.20157 69.8946 8.20157C65.4022 8.20157 61.8657 12.2535 61.8657 17.3307C61.8657 22.4079 65.4022 26.5087 69.8946 26.5087C72.0691 26.5087 74.148 25.5079 74.9843 24.0677V26.1425H80.098V8.56771H74.9843Z" fill="#4E5A85"/>
<path d="M6.49979 19.3804C6.49979 21.1623 5.08995 22.6025 3.34558 22.6025C1.6012 22.6025 0.19136 21.1623 0.19136 19.3804C0.19136 17.5985 1.6012 16.1584 3.34558 16.1584H6.49979V19.3804ZM8.0769 19.3804C8.0769 17.5985 9.48674 16.1584 11.2311 16.1584C12.9755 16.1584 14.3853 17.5985 14.3853 19.3804V27.4356C14.3853 29.2174 12.9755 30.6576 11.2311 30.6576C9.48674 30.6576 8.0769 29.2174 8.0769 27.4356V19.3804Z" fill="#4E5A85"/>
<path d="M11.2309 6.44379C9.48653 6.44379 8.07669 5.00363 8.07669 3.22174C8.07669 1.43985 9.48653 -0.000305176 11.2309 -0.000305176C12.9753 -0.000305176 14.3851 1.43985 14.3851 3.22174V6.44379H11.2309ZM11.2309 8.07922C12.9753 8.07922 14.3851 9.51938 14.3851 11.3013C14.3851 13.0832 12.9753 14.5233 11.2309 14.5233H3.32147C1.57709 14.5233 0.167252 13.0832 0.167252 11.3013C0.167252 9.51938 1.57709 8.07922 3.32147 8.07922H11.2309Z" fill="#4E5A85"/>
<path d="M23.8717 11.4481C23.8717 9.66617 25.2815 8.22601 27.0259 8.22601C28.7703 8.22601 30.1801 9.66617 30.1801 11.4481C30.1801 13.2299 28.7703 14.6701 27.0259 14.6701H23.8717V11.4481ZM22.2946 11.4481C22.2946 13.2299 20.8847 14.6701 19.1403 14.6701C17.396 14.6701 15.9861 13.2299 15.9861 11.4481V3.36853C15.9861 1.58664 17.396 0.146484 19.1403 0.146484C20.8847 0.146484 22.2946 1.58664 22.2946 3.36853V11.4481Z" fill="#4E5A85"/>
<path d="M19.1403 24.2135C20.8847 24.2135 22.2946 25.6537 22.2946 27.4356C22.2946 29.2174 20.8847 30.6576 19.1403 30.6576C17.396 30.6576 15.9861 29.2174 15.9861 27.4356V24.2135H19.1403ZM19.1403 22.6025C17.396 22.6025 15.9861 21.1623 15.9861 19.3804C15.9861 17.5985 17.396 16.1584 19.1403 16.1584H27.0498C28.7942 16.1584 30.204 17.5985 30.204 19.3804C30.204 21.1623 28.7942 22.6025 27.0498 22.6025H19.1403Z" fill="#4E5A85"/>
</g>
<defs>
<clipPath id="clip0">
<rect width="119" height="31" fill="white"/>
</clipPath>
</defs>
</svg>
