<svg width="86" height="20" viewBox="0 0 86 20" fill="none" xmlns="http://www.w3.org/2000/svg">
<path fill-rule="evenodd" clip-rule="evenodd" d="M69.8239 6.41397C70.1517 6.97297 70.259 7.60897 70.2944 8.32397L70.3409 9.27697V15.941L70.3885 16.895C70.4836 18.453 71.6461 19.605 73.2346 19.703L74.1947 19.75V9.27697L74.2423 8.32397C74.2817 7.61697 74.388 6.96897 74.7208 6.40597C75.06 5.8285 75.547 5.3494 76.1328 5.01675C76.7185 4.68411 77.3825 4.50964 78.0581 4.51085C78.7337 4.51207 79.3971 4.68893 79.9816 5.02368C80.5662 5.35843 81.0513 5.83929 81.3884 6.41797C81.7162 6.97697 81.8184 7.62497 81.8578 8.32397L81.9054 9.27397V15.941L81.9529 16.895C82.0521 18.461 83.2055 19.613 84.799 19.703L85.7592 19.75V8.32397C85.7592 6.30354 84.9474 4.36582 83.5022 2.93687C82.057 1.50793 80.0968 0.704763 78.0526 0.703968C76.9585 0.702827 75.8767 0.932473 74.8796 1.37756C73.8825 1.82265 72.9929 2.47293 72.2704 3.28497C71.5475 2.47325 70.6579 1.82313 69.6608 1.37791C68.6638 0.932686 67.5822 0.702596 66.4881 0.702968C64.8875 0.702968 63.4022 1.18297 62.1719 2.01197C61.4212 1.18397 59.7417 0.702968 58.7775 0.702968V19.75L59.7417 19.703C61.3544 19.598 62.52 18.477 62.5827 16.895L62.6343 15.941V9.27697L62.6819 8.32397C62.7223 7.60497 62.8235 6.97297 63.1523 6.40997C63.4918 5.83286 63.9785 5.35387 64.5639 5.02082C65.1492 4.68777 65.8127 4.51231 66.4881 4.51197C67.164 4.51211 67.8281 4.68792 68.4135 5.02175C68.999 5.35558 69.4854 5.83571 69.8239 6.41397ZM3.85381 19.704L4.81802 19.75H19.2711L19.2235 18.8C19.093 17.234 17.971 16.09 16.3815 15.988L15.4173 15.941H6.74645L18.3069 4.51097L18.2593 3.56197C18.1844 1.97997 17.0148 0.836968 15.4173 0.749968L14.4531 0.706968L0 0.702968L0.0475529 1.65597C0.174024 3.20697 1.31226 4.37497 2.88859 4.46497L3.85381 4.51197H12.5246L0.964212 15.942L1.01176 16.895C1.10687 18.465 2.2532 19.602 3.85381 19.703V19.704ZM54.9945 3.49097C55.8894 4.37529 56.5993 5.42519 57.0836 6.5807C57.568 7.73622 57.8172 8.97472 57.8172 10.2255C57.8172 11.4762 57.568 12.7147 57.0836 13.8702C56.5993 15.0258 55.8894 16.0756 54.9945 16.96C53.1865 18.7455 50.7351 19.7485 48.1792 19.7485C45.6233 19.7485 43.172 18.7455 41.364 16.96C37.6012 13.241 37.6012 7.20997 41.364 3.49097C42.2581 2.60694 43.3196 1.90564 44.4879 1.4271C45.6562 0.948564 46.9085 0.702163 48.1732 0.701968C49.4399 0.701098 50.6944 0.947066 51.8648 1.4258C53.0353 1.90454 54.0988 2.60664 54.9945 3.49197V3.49097ZM52.2678 6.18797C53.3516 7.25999 53.9604 8.71348 53.9604 10.229C53.9604 11.7445 53.3516 13.1979 52.2678 14.27C51.1831 15.3412 49.7125 15.9429 48.1792 15.9429C46.6459 15.9429 45.1753 15.3412 44.0907 14.27C43.0069 13.1979 42.3981 11.7445 42.3981 10.229C42.3981 8.71348 43.0069 7.25999 44.0907 6.18797C45.1753 5.11676 46.6459 4.51503 48.1792 4.51503C49.7125 4.51503 51.1831 5.11676 52.2678 6.18797ZM27.95 0.701968C29.2147 0.702294 30.467 0.948853 31.6354 1.42756C32.8037 1.90628 33.8652 2.60776 34.7592 3.49197C38.5229 7.20997 38.5229 13.242 34.7592 16.96C32.9512 18.7455 30.4998 19.7485 27.9439 19.7485C25.388 19.7485 22.9367 18.7455 21.1287 16.96C17.3659 13.241 17.3659 7.20997 21.1287 3.49097C22.0228 2.60694 23.0843 1.90564 24.2526 1.4271C25.4209 0.948564 26.6732 0.702163 27.9379 0.701968H27.95ZM32.0325 6.18597C33.1166 7.25803 33.7256 8.71173 33.7256 10.2275C33.7256 11.7432 33.1166 13.1969 32.0325 14.269C30.9478 15.3402 29.4773 15.9419 27.9439 15.9419C26.4106 15.9419 24.94 15.3402 23.8554 14.269C22.7716 13.1969 22.1628 11.7435 22.1628 10.228C22.1628 8.71247 22.7716 7.25899 23.8554 6.18697C24.94 5.11576 26.4106 4.51403 27.9439 4.51403C29.4773 4.51403 30.9478 5.11576 32.0325 6.18697V6.18597Z" fill="#4E5A85"/>
</svg>
